<svg class="twitterIcon-bird" viewBox="0 0 1208 982" version="1.1" xmlns="http://www.w3.org/2000/svg" xmlns:xlink="http://www.w3.org/1999/xlink">
    <!-- Generator: Sketch 45.2 (43514) - http://www.bohemiancoding.com/sketch -->
    <title>bird</title>
    <desc>Created with Sketch.</desc>
    <defs></defs>
    <g id="Final-Horizon" stroke="none" stroke-width="1" fill="none" fill-rule="evenodd">
        <g id="Artboard" transform="translate(-286.000000, -117.000000)" fill-rule="nonzero" fill="#1B95E0">
            <path fill="#ff9900" d="M369.71,206.34c-27.1,7.24-54.54,7.28-81.69,0C244,191.46,193.29,128,161.44,64.89c-5.47-10.81-11-22.28-13.89-34.24A48,48,0,0,1,204.87,15.07C274.7,65,309.24,143,323.45,206.34c.66,3.08,1.37,6.15,2.14,9.22C336.78,205.49,353.57,202.93,369.71,206.34Z"/>
            <path fill="#e54c21" d="M477.39,286.62C426.93,384.4,330.47,480,256,480c-41.2,0-80.22-12.19-114.15-35.4C69.39,384.4,12.61,274,34.15,181.71a193.56,193.56,0,0,1,86.77-140.23A48,48,0,0,1,189.13,45.92C251.15,109.2,314.67,158,370.76,158c39.41,0,71.69-18.16,96.24-48.39a48,48,0,0,1,67.61-9.62C515.34,159.59,551.87,234.46,477.39,286.62Z"/>
            <path fill="#ffdc64" d="M391.16,99.85c-23.27,23.19-53.27,36.44-85.47,36.44-28.26,0-55.46-8.71-78.34-25.36a48,48,0,0,1,5.5-74.94A110.87,110.87,0,0,1,278,20.51a48,48,0,0,1,42.92,25.67c7.57,14.2,16.41,29.07,26.17,44.55,7.92,12.55,16.42,24.68,25.58,36.2A48,48,0,0,1,391.16,99.85Z"/>
        </g>
    </g>
</svg>